<svg id="Layer_1" data-name="Layer 1" xmlns="http://www.w3.org/2000/svg" viewBox="0 0 301.28 283.14"><defs><style>.cls-1{fill:#f7dcbe;}</style></defs><path class="cls-1" d="M188.19,81.25V69a30.31,30.31,0,0,0-60.46-3.14l76.41,76.41v3.31a46.18,46.18,0,0,1-3,16.38h0a46.4,46.4,0,0,1-8.41,14l-.07.08a46.4,46.4,0,0,1-12.4,10,46.26,46.26,0,0,1-30.37,5.1,46.32,46.32,0,0,1-38.29-45.57v-28.3l16,16v12.33a30.34,30.34,0,0,0,30.31,30.31,29.87,29.87,0,0,0,10.4-1.85,30.22,30.22,0,0,0,13.07-9.32l.08-.08A30.2,30.2,0,0,0,188,148.78s0-.05,0-.09l-76.41-76.4V69a46.27,46.27,0,1,1,92.53,0V97.24Z"/><rect class="cls-1" x="119.59" y="252.45" width="76.58" height="15.95"/><rect class="cls-1" x="149.9" y="183.85" width="15.95" height="76.58"/></svg>